# xmcd
#
# Track frame offsets: 
#        182
#        20107
#        44407
#        73507
#        96007
#        132007
#        151657
#        170032
#        193807
#        224782
#        243907
#
# Disc length: 3985 seconds
#
# Revision: 1
# Processed by: cddbd v1.5.2PL0 Copyright (c) Steve Scherf et al.
# Submitted via: ExactAudioCopy v0.99pb3
#
DISCID=9d0f8f0b
DTITLE=Blue Heat - Marooned
DYEAR=1994
DGENRE=Blues
TTITLE0=Someone else is kissin' ya
TTITLE1=Aint what ya got
TTITLE2=Laughin' and cryin'
TTITLE3=Why oh Why
TTITLE4=I cried all day
TTITLE5=I want your Love
TTITLE6=I do believe
TTITLE7=There's a question
TTITLE8=Marooned
TTITLE9=Love Struck
TTITLE10=Crazy man
EXTD=
EXTT0=
EXTT1=
EXTT2=
EXTT3=
EXTT4=
EXTT5=
EXTT6=
EXTT7=
EXTT8=
EXTT9=
EXTT10=
PLAYORDER=
